# xmcd
#
# Track frame offsets:
#	151
#	14281
#	27968
#	45954
#	64627
#	77482
#	96715
#	118251
#	130144
#	153232
#	167502
#	184626
#
# Disc length: 2693 seconds
#
# Revision: 1
# Processed by: cddbd v1.5.2PL0 Copyright (c) Steve Scherf et al.
# Submitted via: EasyCDDAExtractor 12.0.0.1
#
DISCID=8e0a830c
DTITLE=Andre Brazeau - Le Bon Temps
DYEAR=1900
DGENRE=Country
TTITLE0=Avec Mon Pere
TTITLE1=Dans Mes Bras
TTITLE2=Quelque Part Pour Oublier
TTITLE3=Mon Salon D'Barbier
TTITLE4=Le Bon Temps
TTITLE5=Ne Dites Pas Rien
TTITLE6=Mon P'tit frere
TTITLE7=On Devrait Penser
TTITLE8=Nos Personnes Ainees
TTITLE9=Sans Toi
TTITLE10=Deux Rigodons (Violon)
TTITLE11=Pot-Pourri (Guitare)
EXTD=
EXTT0=
EXTT1=
EXTT2=
EXTT3=
EXTT4=
EXTT5=
EXTT6=
EXTT7=
EXTT8=
EXTT9=
EXTT10=
EXTT11=
PLAYORDER=
